REM DIRINDEX 1\2,1\3
REM DIRNAME folder01,folder02,folder03
TITLE ""
FILE "CD2Track02.mp3" MP3
  TRACK 01 AUDIO
    TITLE "0:"
    INDEX 01 00:00:00
  TRACK 02 AUDIO
    TITLE "3:cjc102_2292"
    INDEX 01 00:00:25
  TRACK 03 AUDIO
    TITLE "0:"
    INDEX 01 00:01:11
  TRACK 04 AUDIO
    TITLE "2:cjc102_2293"
    INDEX 01 00:01:13
  TRACK 05 AUDIO
    TITLE "0:"
    INDEX 01 00:02:10
  TRACK 06 AUDIO
    TITLE "3:cjc102_2294"
    INDEX 01 00:03:14
  TRACK 07 AUDIO
    TITLE "0:"
    INDEX 01 00:03:72
  TRACK 08 AUDIO
    TITLE "2:cjc102_2295"
    INDEX 01 00:03:74
  TRACK 09 AUDIO
    TITLE "0:"
    INDEX 01 00:05:18
  TRACK 10 AUDIO
    TITLE "3:cjc102_2296"
    INDEX 01 00:06:47
  TRACK 11 AUDIO
    TITLE "0:"
    INDEX 01 00:07:45
  TRACK 12 AUDIO
    TITLE "2:cjc102_2297"
    INDEX 01 00:07:58
  TRACK 13 AUDIO
    TITLE "0:"
    INDEX 01 00:08:62
  TRACK 14 AUDIO
    TITLE "3:cjc102_2298"
    INDEX 01 00:10:29
  TRACK 15 AUDIO
    TITLE "0:"
    INDEX 01 00:11:25
  TRACK 16 AUDIO
    TITLE "2:cjc102_2299"
    INDEX 01 00:11:48
  TRACK 17 AUDIO
    TITLE "0:"
    INDEX 01 00:12:58
  TRACK 18 AUDIO
    TITLE "3:cjc102_2300"
    INDEX 01 00:13:61
  TRACK 19 AUDIO
    TITLE "0:"
    INDEX 01 00:14:39
  TRACK 20 AUDIO
    TITLE "2:cjc102_2301"
    INDEX 01 00:15:27
  TRACK 21 AUDIO
    TITLE "0:"
    INDEX 01 00:16:32
  TRACK 22 AUDIO
    TITLE "3:cjc102_2302"
    INDEX 01 00:17:06
  TRACK 23 AUDIO
    TITLE "0:"
    INDEX 01 00:18:03
  TRACK 24 AUDIO
    TITLE "2:cjc102_2303"
    INDEX 01 00:18:27
  TRACK 25 AUDIO
    TITLE "0:"
    INDEX 01 00:19:28
  TRACK 26 AUDIO
    TITLE "3:cjc102_2304"
    INDEX 01 00:20:41
  TRACK 27 AUDIO
    TITLE "0:"
    INDEX 01 00:21:37
  TRACK 28 AUDIO
    TITLE "2:cjc102_2305"
    INDEX 01 00:21:43
  TRACK 29 AUDIO
    TITLE "0:"
    INDEX 01 00:22:64
  TRACK 30 AUDIO
    TITLE "3:cjc102_2306"
    INDEX 01 00:23:69
  TRACK 31 AUDIO
    TITLE "0:"
    INDEX 01 00:24:63
  TRACK 32 AUDIO
    TITLE "2:cjc102_2307"
    INDEX 01 00:25:13
  TRACK 33 AUDIO
    TITLE "0:"
    INDEX 01 00:26:22
  TRACK 34 AUDIO
    TITLE "3:cjc102_2308"
    INDEX 01 00:26:67
  TRACK 35 AUDIO
    TITLE "0:"
    INDEX 01 00:27:61
  TRACK 36 AUDIO
    TITLE "2:cjc102_2309"
    INDEX 01 00:28:47
  TRACK 37 AUDIO
    TITLE "0:"
    INDEX 01 00:29:70
  TRACK 38 AUDIO
    TITLE "3:cjc102_2310"
    INDEX 01 00:30:44
  TRACK 39 AUDIO
    TITLE "0:"
    INDEX 01 00:31:37
  TRACK 40 AUDIO
    TITLE "2:cjc102_2311"
    INDEX 01 00:32:09
  TRACK 41 AUDIO
    TITLE "0:"
    INDEX 01 00:33:07
  TRACK 42 AUDIO
    TITLE "3:cjc102_2312"
    INDEX 01 00:34:28
  TRACK 43 AUDIO
    TITLE "0:"
    INDEX 01 00:35:45
  TRACK 44 AUDIO
    TITLE "2:cjc102_2313"
    INDEX 01 00:35:72
  TRACK 45 AUDIO
    TITLE "0:"
    INDEX 01 00:37:24
  TRACK 46 AUDIO
    TITLE "3:cjc102_2314"
    INDEX 01 00:38:63
  TRACK 47 AUDIO
    TITLE "0:"
    INDEX 01 00:39:74
  TRACK 48 AUDIO
    TITLE "2:cjc102_2315"
    INDEX 01 00:40:15
  TRACK 49 AUDIO
    TITLE "0:"
    INDEX 01 00:41:30
  TRACK 50 AUDIO
    TITLE "3:cjc102_2316"
    INDEX 01 00:43:31
  TRACK 51 AUDIO
    TITLE "0:"
    INDEX 01 00:44:48
  TRACK 52 AUDIO
    TITLE "2:cjc102_2317"
    INDEX 01 00:44:65
  TRACK 53 AUDIO
    TITLE "0:"
    INDEX 01 00:46:09
  TRACK 54 AUDIO
    TITLE "3:cjc102_2318"
    INDEX 01 00:47:58
  TRACK 55 AUDIO
    TITLE "0:"
    INDEX 01 00:49:00
  TRACK 56 AUDIO
    TITLE "2:cjc102_2319"
    INDEX 01 00:49:02
  TRACK 57 AUDIO
    TITLE "0:"
    INDEX 01 00:50:17
  TRACK 58 AUDIO
    TITLE "3:cjc102_2320"
    INDEX 01 00:51:65
  TRACK 59 AUDIO
    TITLE "0:"
    INDEX 01 00:52:65
  TRACK 60 AUDIO
    TITLE "2:cjc102_2321"
    INDEX 01 00:52:69
  TRACK 61 AUDIO
    TITLE "0:"
    INDEX 01 00:54:15
  TRACK 62 AUDIO
    TITLE "3:cjc102_2322"
    INDEX 01 00:55:57
  TRACK 63 AUDIO
    TITLE "0:"
    INDEX 01 00:56:67
  TRACK 64 AUDIO
    TITLE "2:cjc102_2323"
    INDEX 01 00:57:21
  TRACK 65 AUDIO
    TITLE "0:"
    INDEX 01 00:58:28
  TRACK 66 AUDIO
    TITLE "3:cjc102_2324"
    INDEX 01 00:59:55
  TRACK 67 AUDIO
    TITLE "0:"
    INDEX 01 01:00:74
  TRACK 68 AUDIO
    TITLE "2:cjc102_2325"
    INDEX 01 01:01:29
  TRACK 69 AUDIO
    TITLE "0:"
    INDEX 01 01:02:42
  TRACK 70 AUDIO
    TITLE "2:cjc102_2326"
    INDEX 01 01:03:67
  TRACK 71 AUDIO
    TITLE "0:"
    INDEX 01 01:05:17
  TRACK 72 AUDIO
    TITLE "3:cjc102_2327"
    INDEX 01 01:06:08
  TRACK 73 AUDIO
    TITLE "0:"
    INDEX 01 01:07:29
  TRACK 74 AUDIO
    TITLE "2:cjc102_2328"
    INDEX 01 01:07:33
  TRACK 75 AUDIO
    TITLE "0:"
    INDEX 01 01:08:36
  TRACK 76 AUDIO
    TITLE "2:cjc102_2329"
    INDEX 01 01:09:24
  TRACK 77 AUDIO
    TITLE "0:"
    INDEX 01 01:10:31
  TRACK 78 AUDIO
    TITLE "3:cjc102_2330"
    INDEX 01 01:11:41
  TRACK 79 AUDIO
    TITLE "0:"
    INDEX 01 01:12:62
  TRACK 80 AUDIO
    TITLE "2:cjc102_2331"
    INDEX 01 01:13:04
  TRACK 81 AUDIO
    TITLE "0:"
    INDEX 01 01:14:08
  TRACK 82 AUDIO
    TITLE "2:cjc102_2332"
    INDEX 01 01:15:05
  TRACK 83 AUDIO
    TITLE "0:"
    INDEX 01 01:16:18
